<svg width="48" height="48" viewBox="0 0 48 48" fill="none" xmlns="http://www.w3.org/2000/svg">
<path d="M32.5607 23.5607C33.1464 22.9749 33.1464 22.0251 32.5607 21.4393C31.9749 20.8536 31.0251 20.8536 30.4393 21.4393L22.5 29.3787L19.0607 25.9393C18.4749 25.3536 17.5251 25.3536 16.9393 25.9393C16.3536 26.5251 16.3536 27.4749 16.9393 28.0607L21.4393 32.5607C21.7206 32.842 22.1022 33 22.5 33C22.8978 33 23.2794 32.842 23.5607 32.5607L32.5607 23.5607Z" fill="#3D58FF"/>
<path d="M42 42V13.5L28.5 0H12C8.68629 0 6 2.68629 6 6V42C6 45.3137 8.68629 48 12 48H36C39.3137 48 42 45.3137 42 42ZM28.5 9C28.5 11.4853 30.5147 13.5 33 13.5H39V42C39 43.6569 37.6569 45 36 45H12C10.3431 45 9 43.6569 9 42V6C9 4.34315 10.3431 3 12 3H28.5V9Z" fill="#3D58FF"/>
</svg>
