<svg width="49" height="48" viewBox="0 0 49 48" fill="none" xmlns="http://www.w3.org/2000/svg">
<path d="M6.5 6C3.18629 6 0.5 8.68629 0.5 12V36L0.500078 36.0308C0.51668 39.3304 3.19658 42 6.5 42H23C23.8284 42 24.5 41.3284 24.5 40.5C24.5 39.6716 23.8284 39 23 39H6.5C5.11145 39 3.94323 38.0566 3.60129 36.7759L20.5225 26.3628L24.5 28.7493L45.5 16.1493V25.5C45.5 26.3284 46.1716 27 47 27C47.8284 27 48.5 26.3284 48.5 25.5V12C48.5 8.68629 45.8137 6 42.5 6H6.5ZM17.6242 24.6238L3.5 33.3157V16.1493L17.6242 24.6238ZM3.5 12.6507V12C3.5 10.3431 4.84315 9 6.5 9H42.5C44.1569 9 45.5 10.3431 45.5 12V12.6507L24.5 25.2507L3.5 12.6507Z" fill="#3D58FF"/>
<path d="M48.5 37.5C48.5 43.299 43.799 48 38 48C32.201 48 27.5 43.299 27.5 37.5C27.5 31.701 32.201 27 38 27C43.799 27 48.5 31.701 48.5 37.5ZM42.5217 32.4638C41.8114 32.0375 40.89 32.2679 40.4638 32.9783L36.9522 38.8309L35.3107 37.1893C34.7249 36.6036 33.7751 36.6036 33.1893 37.1893C32.6036 37.7751 32.6036 38.7249 33.1893 39.3107L35.5101 41.6314C36.5452 42.6665 38.2773 42.4532 39.0305 41.1981L43.0362 34.5217C43.4625 33.8114 43.2321 32.89 42.5217 32.4638Z" fill="#3D58FF"/>
</svg>
