<svg width="49" height="48" viewBox="0 0 49 48" fill="none" xmlns="http://www.w3.org/2000/svg">
<path d="M45.5 42C45.5 42 48.5 42 48.5 39C48.5 36 45.5 27 33.5 27C21.5 27 18.5 36 18.5 39C18.5 42 21.5 42 21.5 42H45.5ZM21.567 39C21.5566 38.9988 21.5421 38.9969 21.5244 38.9939C21.5161 38.9926 21.508 38.9911 21.5 38.9896C21.5044 38.1974 22.0006 35.9007 23.7778 33.8274C25.44 31.8881 28.3481 30 33.5 30C38.6519 30 41.56 31.8881 43.2222 33.8274C44.9994 35.9007 45.4956 38.1974 45.5 38.9896C45.492 38.9911 45.4839 38.9926 45.4756 38.9939C45.4579 38.9969 45.4434 38.9988 45.433 39H21.567Z" fill="#3D58FF"/>
<path d="M33.5 21C36.8137 21 39.5 18.3137 39.5 15C39.5 11.6863 36.8137 9 33.5 9C30.1863 9 27.5 11.6863 27.5 15C27.5 18.3137 30.1863 21 33.5 21ZM42.5 15C42.5 19.9706 38.4706 24 33.5 24C28.5294 24 24.5 19.9706 24.5 15C24.5 10.0294 28.5294 6 33.5 6C38.4706 6 42.5 10.0294 42.5 15Z" fill="#3D58FF"/>
<path d="M21.3078 27.8399C20.2044 27.487 18.9786 27.2304 17.6188 27.0992C16.9458 27.0342 16.24 27 15.5 27C3.5 27 0.5 36 0.5 39C0.5 41 1.5 42 3.5 42H16.1491C15.7267 41.1477 15.5 40.1374 15.5 39C15.5 35.9691 16.6317 32.8741 18.7695 30.2886C19.4998 29.4052 20.3476 28.5814 21.3078 27.8399ZM15.2601 30.0014C13.4677 32.7408 12.5 35.8641 12.5 39H3.5C3.5 38.2178 3.99273 35.9099 5.77777 33.8274C7.41405 31.9184 10.2575 30.059 15.2601 30.0014Z" fill="#3D58FF"/>
<path d="M5 16.5C5 11.5294 9.02944 7.5 14 7.5C18.9706 7.5 23 11.5294 23 16.5C23 21.4706 18.9706 25.5 14 25.5C9.02944 25.5 5 21.4706 5 16.5ZM14 10.5C10.6863 10.5 8 13.1863 8 16.5C8 19.8137 10.6863 22.5 14 22.5C17.3137 22.5 20 19.8137 20 16.5C20 13.1863 17.3137 10.5 14 10.5Z" fill="#3D58FF"/>
</svg>
