<svg width="49" height="48" viewBox="0 0 49 48" fill="none" xmlns="http://www.w3.org/2000/svg">
<path d="M42.5 28.5C42.5 31.8137 39.8137 34.5 36.5 34.5C33.1863 34.5 30.5 31.8137 30.5 28.5C30.5 25.1863 33.1863 22.5 36.5 22.5C39.8137 22.5 42.5 25.1863 42.5 28.5ZM24.4999 45.6C24.4999 48 26.8999 48 26.8999 48H46.0999C46.0999 48 48.4999 48 48.4999 45.6C48.4999 43.2 46.0999 36 36.4999 36C26.8999 36 24.4999 43.2 24.4999 45.6Z" fill="#3D58FF"/>
<path d="M6.5 6C3.18629 6 0.5 8.68629 0.5 12V36C0.5 39.3137 3.18629 42 6.5 42H22.2287C22.5956 41.0207 23.1129 39.9946 23.8072 39H6.5C4.84315 39 3.5 37.6569 3.5 36V12C3.5 10.3431 4.84315 9 6.5 9H42.5C44.1569 9 45.5 10.3431 45.5 12V35.4318C46.5603 36.1194 47.4673 36.9177 48.2316 37.7799C48.406 37.2175 48.5 36.6197 48.5 36V12C48.5 8.68629 45.8137 6 42.5 6H6.5Z" fill="#3D58FF"/>
</svg>
