<svg width="48" height="48" viewBox="0 0 48 48" fill="none" xmlns="http://www.w3.org/2000/svg">
<path d="M16.0138 4.77252C12.7558 5.65566 9.45641 6.69974 7.50365 7.33694C6.96639 7.51226 6.58912 7.9775 6.51828 8.50915C4.85665 20.9787 8.69591 30.08 13.2769 36.0729C15.5769 39.0817 18.0655 41.3072 20.1401 42.7701C21.1782 43.5022 22.096 44.0316 22.8171 44.3711C23.1782 44.541 23.4735 44.6556 23.6977 44.7251C23.8824 44.7823 23.9774 44.7958 24 44.799C24.0226 44.7958 24.1176 44.7823 24.3023 44.7251C24.5266 44.6556 24.8218 44.541 25.1829 44.3711C25.904 44.0316 26.8218 43.5022 27.8599 42.7701C29.9345 41.3072 32.4231 39.0817 34.7231 36.0729C39.3041 30.08 43.1433 20.9787 41.4817 8.50915C41.4109 7.9775 41.0336 7.51226 40.4964 7.33694C38.5436 6.69974 35.2442 5.65566 31.9862 4.77252C28.6551 3.86955 25.5926 3.2 24 3.2C22.4075 3.2 19.3449 3.86955 16.0138 4.77252ZM15.215 1.67896C18.4722 0.79603 21.9315 0 24 0C26.0685 0 29.5279 0.796029 32.785 1.67896C36.1153 2.5817 39.4705 3.64382 41.4442 4.28785C43.0912 4.82531 44.3371 6.28077 44.5763 8.07629C46.3662 21.5082 42.2159 31.4606 37.182 38.046C34.6745 41.3263 31.9493 43.7711 29.6307 45.4061C28.4723 46.223 27.3986 46.8496 26.4869 47.2788C25.6444 47.6754 24.7431 48 24 48C23.2569 48 22.3556 47.6754 21.5131 47.2788C20.6014 46.8496 19.5277 46.223 18.3693 45.4061C16.0507 43.7711 13.3255 41.3263 10.818 38.046C5.78412 31.4606 1.63382 21.5082 3.42369 8.07628C3.66295 6.28077 4.90876 4.82531 6.55583 4.28785C8.52949 3.64383 11.8847 2.5817 15.215 1.67896Z" fill="#3D58FF"/>
<path d="M32.5607 15.4393C33.1464 16.0251 33.1464 16.9749 32.5607 17.5607L23.5607 26.5607C23.2794 26.842 22.8978 27 22.5 27C22.1022 27 21.7206 26.842 21.4393 26.5607L16.9393 22.0607C16.3536 21.4749 16.3536 20.5251 16.9393 19.9393C17.5251 19.3536 18.4749 19.3536 19.0607 19.9393L22.5 23.3787L30.4393 15.4393C31.0251 14.8536 31.9749 14.8536 32.5607 15.4393Z" fill="#3D58FF"/>
</svg>
