<svg width="57" height="56" viewBox="0 0 57 56" fill="none" xmlns="http://www.w3.org/2000/svg">
<g filter="url(#filter0_d_124_698)">
<rect x="5" y="0.5" width="47" height="47" stroke="black" shape-rendering="crispEdges"/>
<path d="M10.5 6C7.18629 6 4.5 8.68629 4.5 12V36L4.50008 36.0308C4.51668 39.3304 7.19658 42 10.5 42H27C27.8284 42 28.5 41.3284 28.5 40.5C28.5 39.6716 27.8284 39 27 39H10.5C9.11145 39 7.94323 38.0566 7.60129 36.7759L24.5225 26.3628L28.5 28.7493L49.5 16.1493V25.5C49.5 26.3284 50.1716 27 51 27C51.8284 27 52.5 26.3284 52.5 25.5V12C52.5 8.68629 49.8137 6 46.5 6H10.5ZM21.6242 24.6238L7.5 33.3157V16.1493L21.6242 24.6238ZM7.5 12.6507V12C7.5 10.3431 8.84315 9 10.5 9H46.5C48.1569 9 49.5 10.3431 49.5 12V12.6507L28.5 25.2507L7.5 12.6507Z" fill="#3D58FF"/>
<path d="M52.5 37.5C52.5 43.299 47.799 48 42 48C36.201 48 31.5 43.299 31.5 37.5C31.5 31.701 36.201 27 42 27C47.799 27 52.5 31.701 52.5 37.5ZM46.5217 32.4638C45.8114 32.0375 44.89 32.2679 44.4638 32.9783L40.9522 38.8309L39.3107 37.1893C38.7249 36.6036 37.7751 36.6036 37.1893 37.1893C36.6036 37.7751 36.6036 38.7249 37.1893 39.3107L39.5101 41.6314C40.5452 42.6665 42.2773 42.4532 43.0305 41.1981L47.0362 34.5217C47.4625 33.8114 47.2321 32.89 46.5217 32.4638Z" fill="#3D58FF"/>
</g>
<defs>
<filter id="filter0_d_124_698" x="0.5" y="0" width="56" height="56" filterUnits="userSpaceOnUse" color-interpolation-filters="sRGB">
<feFlood flood-opacity="0" result="BackgroundImageFix"/>
<feColorMatrix in="SourceAlpha" type="matrix" values="0 0 0 0 0 0 0 0 0 0 0 0 0 0 0 0 0 0 127 0" result="hardAlpha"/>
<feOffset dy="4"/>
<feGaussianBlur stdDeviation="2"/>
<feComposite in2="hardAlpha" operator="out"/>
<feColorMatrix type="matrix" values="0 0 0 0 0 0 0 0 0 0 0 0 0 0 0 0 0 0 0.25 0"/>
<feBlend mode="normal" in2="BackgroundImageFix" result="effect1_dropShadow_124_698"/>
<feBlend mode="normal" in="SourceGraphic" in2="effect1_dropShadow_124_698" result="shape"/>
</filter>
</defs>
</svg>
